<?xml version="1.0" encoding="utf-8"?>
<svg version="1.1" xmlns:xlink="http://www.w3.org/1999/xlink" width="603px" height="1082px" xmlns="http://www.w3.org/2000/svg">
  <defs>
    <radialGradient cx="309.666666666668" cy="105.706666666666" r="1000.96" gradientTransform="matrix(2.83944507576766E-16 1 -0.999999999999999 2.83944507576766E-16 415.373333333333 -203.960000000002 )" gradientUnits="userSpaceOnUse" id="RadialGradient697">
      <stop id="Stop698" stop-color="#f3eedd" offset="0" />
      <stop id="Stop699" stop-color="#f1f3d4" stop-opacity="0.8" offset="0.69" />
      <stop id="Stop700" stop-color="#97dbf8" stop-opacity="0.498039215686275" offset="1" />
    </radialGradient>
  </defs>
  <g transform="matrix(1 0 0 1 -239 -856 )">
    <path d="M 52.3978494623656 991.741935483872  C 7.6666666666643 913.4623655914  0 873.892473118279  0 873.892473118279  L 0 244.869565217391  C 0 244.869565217391  17.9076556842326 172.365482314965  59.2795698924708 116.903225806451  C 123.471357772197 30.8491605484173  207.236559139785 1  207.236559139785 1  L 383.58064516129 1  C 383.58064516129 1  417.168046076602 0.454058074626687  459.279569892471 25.7204301075268  C 481.665156436059 39.1514937816428  506.84914297185 63.5469720677107  529.817204301075 91.0967741935476  C 554.568169882355 120.785139894662  579.215910708381 164.076646496857  590.892473118279 194.322580645161  C 603.345816260896 226.580618875533  602 244.869565217391  602 244.869565217391  L 602 855.827956989247  C 602 855.827956989247  595.765691674282 932.21070755026  529.817204301075 1010.66666666667  C 479.924731182798 1070.02150537634  430.89247311828 1082  430.89247311828 1082  L 170.247311827955 1082  C 170.247311827955 1082  88.991257398933 1055.78039937286  52.3978494623656 991.741935483872  Z " fill-rule="nonzero" fill="url(#RadialGradient697)" stroke="none" transform="matrix(1 0 0 1 239 856 )" />
  </g>
</svg>