<?xml version="1.0" encoding="utf-8"?>
<svg version="1.1" xmlns:xlink="http://www.w3.org/1999/xlink" width="150px" height="44px" xmlns="http://www.w3.org/2000/svg">
  <defs>
    <linearGradient gradientUnits="userSpaceOnUse" x1="75" y1="0" x2="75" y2="44" id="LinearGradient704">
      <stop id="Stop705" stop-color="#92bdec" offset="0" />
      <stop id="Stop706" stop-color="#6cd5e0" offset="1" />
    </linearGradient>
    <mask fill="white" id="clip707">
      <path d="M 75 15.0243902439024  L 26.2491967684265 43  L 0 43  L 75 0  L 150 43  L 123.750489832063 43  L 75 15.0243902439024  Z " fill-rule="evenodd" />
    </mask>
  </defs>
  <g transform="matrix(1 0 0 1 -465 -217 )">
    <path d="M 75 15.0243902439024  L 26.2491967684265 43  L 0 43  L 75 0  L 150 43  L 123.750489832063 43  L 75 15.0243902439024  Z " fill-rule="nonzero" fill="#516985" stroke="none" fill-opacity="0.552941176470588" transform="matrix(1 0 0 1 465 217 )" />
    <path d="M 75 15.0243902439024  L 26.2491967684265 43  L 0 43  L 75 0  L 150 43  L 123.750489832063 43  L 75 15.0243902439024  Z " stroke-width="2" stroke="url(#LinearGradient704)" fill="none" transform="matrix(1 0 0 1 465 217 )" mask="url(#clip707)" />
  </g>
</svg>